<svg width="12" height="12" viewBox="0 0 12 12" fill="none" xmlns="http://www.w3.org/2000/svg">
<path fill-rule="evenodd" clip-rule="evenodd" d="M0.666626 6.00016C0.666626 5.63197 0.965103 5.3335 1.33329 5.3335H10.6666C11.0348 5.3335 11.3333 5.63197 11.3333 6.00016C11.3333 6.36835 11.0348 6.66683 10.6666 6.66683H1.33329C0.965103 6.66683 0.666626 6.36835 0.666626 6.00016Z" fill="#0568FD"/>
<path fill-rule="evenodd" clip-rule="evenodd" d="M5.52851 0.86201C5.78886 0.601661 6.21097 0.601661 6.47132 0.86201L11.138 5.52868C11.3983 5.78903 11.3983 6.21114 11.138 6.47149L6.47132 11.1382C6.21097 11.3985 5.78886 11.3985 5.52851 11.1382C5.26816 10.8778 5.26816 10.4557 5.52851 10.1953L9.72378 6.00008L5.52851 1.80482C5.26816 1.54447 5.26816 1.12236 5.52851 0.86201Z" fill="#0568FD"/>
</svg>
