<svg width="21" height="24" viewBox="0 0 21 24" fill="none" xmlns="http://www.w3.org/2000/svg">
<path d="M11.25 1.5C12.4922 1.5 13.5 2.50734 13.5 3.75V20.25C13.5 21.4922 12.4922 22.5 11.25 22.5H9.75C8.50781 22.5 7.5 21.4922 7.5 20.25V3.75C7.5 2.50734 8.50781 1.5 9.75 1.5H11.25ZM11.25 3.75H9.75V20.25H11.25V3.75ZM3.75 10.5C4.99219 10.5 6 11.5078 6 12.75V20.25C6 21.4922 4.99219 22.5 3.75 22.5H2.25C1.00734 22.5 0 21.4922 0 20.25V12.75C0 11.5078 1.00734 10.5 2.25 10.5H3.75ZM3.75 12.75H2.25V20.25H3.75V12.75ZM15 6.75C15 5.50781 16.0078 4.5 17.25 4.5H18.75C19.9922 4.5 21 5.50781 21 6.75V20.25C21 21.4922 19.9922 22.5 18.75 22.5H17.25C16.0078 22.5 15 21.4922 15 20.25V6.75ZM17.25 20.25H18.75V6.75H17.25V20.25Z" fill="#0568FD"/>
</svg>
