<svg width="24" height="24" viewBox="0 0 24 24" fill="none" xmlns="http://www.w3.org/2000/svg">
<g clip-path="url(#clip0_2069_8092)">
<path d="M22.7906 1.87406C22.6781 1.62516 22.4438 1.5 22.2094 1.5C21.987 1.5 21.7619 1.61161 21.6328 1.83548C20.4614 3.86377 18.3464 4.88939 16.2 4.88939C15.676 4.88939 15.15 4.82827 14.6349 4.70578C14.0306 4.56202 13.3997 4.49573 12.7514 4.49573C8.19518 4.49573 4.50143 8.1937 4.50143 12.7504C4.50143 13.164 4.54159 13.5675 4.60038 13.965C0.878505 17.2054 0.0356926 21.0946 0.0230363 21.1556C-0.0985574 21.7635 0.294771 22.3523 0.901005 22.477C0.976427 22.4906 1.0519 22.5 1.12596 22.5C1.64815 22.5 2.1169 22.1323 2.22752 21.6019C2.26781 21.4074 2.8608 18.7828 5.31705 16.3097C6.64736 19.0809 9.47158 20.9972 12.7514 20.9972C13.8235 20.9972 14.8444 20.7855 15.7838 20.4131C20.7141 18.7828 24 13.7484 24 7.75312C24 5.71406 23.5641 3.59812 22.7906 1.87406ZM15.075 18.2391L15.0133 18.2595L14.9529 18.2834C14.2409 18.5655 13.4984 18.709 12.7484 18.7098C10.1632 18.7098 7.97651 17.057 7.13276 14.7597C9.07994 13.4069 11.7607 12.2922 15.4343 11.9547C16.0531 11.8975 16.5087 11.3509 16.4529 10.7313C16.3958 10.113 15.8318 9.65875 15.2304 9.71313C11.6248 10.0411 8.87416 11.0594 6.74135 12.3494C6.93152 9.21063 9.5201 6.71032 12.7085 6.71032C13.2087 6.71032 13.6667 6.75902 14.0703 6.85497C14.7528 7.01739 15.4545 7.09971 16.1562 7.09971C18.1535 7.09971 20.0056 6.45611 21.4765 5.30299C21.6703 6.13594 21.75 6.95625 21.75 7.75312C21.75 12.7312 19.0688 16.9594 15.075 18.2391Z" fill="#0568FD"/>
</g>
<defs>
<clipPath id="clip0_2069_8092">
<rect width="24" height="24" fill="white"/>
</clipPath>
</defs>
</svg>
