<svg width="21" height="24" viewBox="0 0 21 24" fill="none" xmlns="http://www.w3.org/2000/svg">
<g clip-path="url(#clip0_2069_8104)">
<path d="M2.25003 7.31719V5.625C2.25003 5.00156 1.74612 4.5 1.12503 4.5C0.503465 4.5 2.78198e-05 5.00156 2.78198e-05 5.625V7.31859C-0.00583155 9.64688 0.91409 11.8828 2.56081 13.5281C3.7969 14.7609 4.4944 16.4344 4.50003 18.1828V21.375C4.50003 21.9984 5.00159 22.5 5.62503 22.5C6.24612 22.5 6.75003 21.9961 6.75003 21.375V18.1814C6.75589 15.855 5.83597 13.6167 4.18925 11.9705C2.95315 10.7391 2.25612 9.06563 2.25003 7.31719ZM18.4407 11.9719C17.2031 10.7391 16.5047 9.06563 16.5 7.31719V5.625C16.5 5.00156 15.9985 4.5 15.375 4.5C14.7535 4.5 14.25 5.00344 14.25 5.625V7.31859C14.2442 9.645 15.1641 11.8833 16.8108 13.5295C18.0474 14.76 18.7444 16.4358 18.7505 18.1819V21.375C18.7505 21.9961 19.2539 22.5 19.8755 22.5C20.4966 22.5 21.0005 21.9961 21.0005 21.375V18.1814C21.0047 15.8578 20.086 13.6172 18.4407 11.9719ZM9.37503 7.31719V2.625C9.37503 2.00344 8.87346 1.5 8.25003 1.5C7.62659 1.5 7.12503 2.00344 7.12503 2.625V7.31719C7.12034 9.64688 8.03909 11.8828 9.6844 13.5281C10.921 14.7586 11.618 16.4344 11.6241 18.1805V21.375C11.6241 21.9961 12.1275 22.5 12.7491 22.5C13.3702 22.5 13.8741 21.9961 13.8741 21.375V18.1814C13.8799 15.855 12.96 13.6167 11.3133 11.9705C10.0782 10.7391 9.37971 9.06563 9.37503 7.31719Z" fill="#0568FD"/>
</g>
<defs>
<clipPath id="clip0_2069_8104">
<rect width="21" height="24" fill="white"/>
</clipPath>
</defs>
</svg>
