<svg width="18" height="24" viewBox="0 0 18 24" fill="none" xmlns="http://www.w3.org/2000/svg">
<g clip-path="url(#clip0_2069_8098)">
<path d="M13.5797 2.8125e-05C14.475 2.8125e-05 15.1219 0.855937 14.8781 1.71609L12.3656 10.5H16.3641C17.2688 10.5 18 11.2312 18 12.1359C18 12.6187 17.7891 13.0734 17.4234 13.3875L5.29219 23.6813C5.04844 23.8875 4.73906 24 4.41891 24C3.52406 24 2.87812 23.1422 3.12375 22.2844L5.63437 13.5H1.58156C0.707813 13.5 0 12.7922 0 11.9203C0 11.4563 0.202266 11.0156 0.553594 10.7156L12.7078 0.323109C12.9516 0.114609 13.2609 0 13.5797 0V2.8125e-05ZM11.8875 3.98391L3.39188 11.25H7.125C7.47656 11.25 7.80937 11.4141 8.025 11.6953C8.23594 11.9812 8.30156 12.3469 8.20781 12.6844L6.10781 20.0391L14.6953 12.75H10.875C10.5234 12.75 10.1906 12.5859 9.975 12.3047C9.76406 12.0188 9.69844 11.6531 9.79219 11.3156L11.8875 3.98391Z" fill="#0568FD"/>
</g>
<defs>
<clipPath id="clip0_2069_8098">
<rect width="18" height="24" fill="white"/>
</clipPath>
</defs>
</svg>
