<svg width="24" height="25" viewBox="0 0 24 25" fill="none" xmlns="http://www.w3.org/2000/svg">
<path d="M21 17.5C21 18.0523 20.5523 18.5 20 18.5H4C3.44772 18.5 3 18.0523 3 17.5C3 16.9477 3.44772 16.5 4 16.5H20C20.5523 16.5 21 16.9477 21 17.5ZM21 12.5C21 13.0523 20.5523 13.5 20 13.5H4C3.44772 13.5 3 13.0523 3 12.5C3 11.9477 3.44772 11.5 4 11.5H20C20.5523 11.5 21 11.9477 21 12.5ZM21 7.5C21 8.05228 20.5523 8.5 20 8.5H4C3.44772 8.5 3 8.05228 3 7.5C3 6.94772 3.44772 6.5 4 6.5H20C20.5523 6.5 21 6.94772 21 7.5Z" fill="black"/>
</svg>
